<?xml version="1.0" encoding="UTF-8"?>
<!DOCTYPE svg PUBLIC "-//W3C//DTD SVG 1.1//EN" "http://www.w3.org/Graphics/SVG/1.1/DTD/svg11.dtd">
<!-- Creator: CorelDRAW X7 -->
<svg xmlns="http://www.w3.org/2000/svg" xml:space="preserve" width="169.333mm" height="169.333mm" version="1.1" style="shape-rendering:geometricPrecision; text-rendering:geometricPrecision; image-rendering:optimizeQuality; fill-rule:evenodd; clip-rule:evenodd"
viewBox="0 0 16933 16933"
 xmlns:xlink="http://www.w3.org/1999/xlink">
 <defs>
  <style type="text/css">
   <![CDATA[
    .fil0 {fill:#e3742d}
    .fil1 {fill:#A7C94A;fill-rule:nonzero}
   ]]>
  </style>
 </defs>
 <g id="Capa_x0020_1">
  <metadata id="CorelCorpID_0Corel-Layer"/>
  <path class="fil0" d="M8015 12038c-17,241 5,477 55,713 18,84 275,1190 -112,1001 -53,-25 -98,-64 -139,-105 -3,-4 -14,19 -17,25 -176,295 -350,593 -529,886 -1,2 -20,33 -21,33 -13,5 -159,4 -183,3 -890,-31 -1663,-502 -2204,-1192 -620,-790 -946,-1866 -850,-2867 135,-1342 657,-2618 1737,-3473 697,-552 1613,-892 2508,-812l7 0c1107,103 1855,835 1688,1987 -276,1790 -1828,2374 -1940,3801zm-166 -263c-14,203 4,400 46,598 15,70 230,997 -94,839 -44,-22 -82,-54 -116,-88 -3,-4 -12,16 -15,21 -148,247 -293,497 -443,742 -1,2 -17,27 -18,28 -11,4 -133,3 -153,3 -746,-27 -1393,-421 -1847,-999 -520,-662 -793,-1564 -712,-2403 113,-1125 550,-2194 1455,-2911 584,-462 1352,-747 2102,-680l6 0c928,86 1554,700 1414,1665 -230,1500 -1531,1990 -1625,3185z"/>
  <path class="fil1" d="M9715 9145c0,0 1002,-244 956,-1551 0,0 -174,832 -595,1067 0,0 -320,-1036 804,-1438 0,0 388,1087 -547,1676l-294 157 -324 89z"/>
  <path class="fil1" d="M9320 6496c0,0 870,-553 408,-1776 0,0 101,844 -221,1201 0,0 -636,-878 299,-1620 0,0 717,906 20,1763l-228 244 -278 188z"/>
  <path class="fil1" d="M10959 5288c0,0 436,-934 -612,-1716 0,0 540,657 460,1132 0,0 -1008,-399 -619,-1527 0,0 1091,377 965,1475l-61 328 -133 308z"/>
  <path class="fil1" d="M6513 4398c0,0 -39,-1031 1231,-1345 0,0 -753,396 -864,865 0,0 1084,24 1163,-1167 0,0 -1152,-76 -1462,985l-71 326 3 336z"/>
  <path class="fil1" d="M7136 6192c0,0 -471,-896 519,-1710 0,0 -498,668 -398,1130 0,0 970,-437 536,-1525 0,0 -1052,421 -877,1490l75 319 145 296z"/>
  <path class="fil1" d="M9962 7421c0,0 827,-404 538,-1535 0,0 6,759 -316,1044 0,0 -476,-843 428,-1407 0,0 545,874 -158,1566l-227 193 -265 139z"/>
  <path class="fil1" d="M8777 5700c0,0 -944,-1266 385,-2764 0,0 -606,1153 -339,1840 0,0 1389,-911 455,-2482 0,0 -1520,905 -990,2512l193 474 296 420z"/>
  <path class="fil1" d="M5129 7247c0,0 -509,-1251 913,-2204 0,0 -749,823 -676,1450 0,0 1345,-456 910,-1957 0,0 -1452,422 -1359,1867l58 433 154 411z"/>
  <path class="fil0" d="M9045 8719c-43,-311 -406,-639 -657,-804 -347,-229 -746,-362 -1152,-440 -259,-50 -473,259 -229,374 21,10 78,21 104,27 586,152 1347,464 1578,1074 21,55 358,-1 357,-220l-1 -11z"/>
  <path class="fil1" d="M6458 11178c425,4 740,387 655,803 -17,77 -42,126 -50,209 -28,292 66,562 340,699 99,49 343,103 451,75 118,-31 238,-119 316,-212 58,-73 92,-152 116,-240l3 -11c16,-70 -1,-147 8,-222 48,-343 326,-579 670,-581 407,20 725,368 651,778 -37,206 -174,279 -57,517 11,23 23,44 36,66 65,108 154,199 274,246 102,38 230,2 301,-79 51,-57 107,-138 148,-204 55,-89 96,-178 133,-276 71,-217 92,-440 45,-665 -9,-42 -37,-83 -57,-124 -53,-113 -69,-190 -72,-315 0,-406 329,-735 735,-735 406,0 735,329 735,735 -13,330 -184,578 -495,694 -83,30 -93,63 -144,131 -220,309 -370,696 -299,1080 27,144 106,192 168,317 33,66 54,130 73,200 20,83 29,162 30,246 0,561 -454,1015 -1015,1015 -560,0 -1015,-454 -1015,-1015 7,-172 24,-208 73,-366 49,-160 24,-226 -5,-383 -32,-177 -80,-344 -200,-483 -83,-73 -219,-89 -310,-23 -110,80 -227,217 -282,341 -47,112 -72,236 -58,357 21,174 10,322 -53,487 -206,540 -844,785 -1356,511l-21 -11c-256,-141 -429,-380 -486,-667 -40,-236 -12,-400 89,-616 64,-137 47,-202 33,-347 -18,-181 -64,-500 -230,-604 -53,-28 -121,-35 -182,-65 -233,-113 -351,-344 -363,-595 0,-369 299,-668 667,-668z"/>
  <g>
   <path class="fil1" d="M7293 12020l-69 -15 0 0 14 -85 8 -79 1 -75 -5 -69 -11 -65 -16 -61 -21 -57 -25 -52 -29 -49 -33 -45 -36 -42 -39 -39 -41 -35 -43 -33 -45 -29 -46 -27 -46 -24 -47 -22 -47 -19 -46 -18 -44 -14 -44 -13 -41 -11 -39 -9 -36 -8 -32 -6 -29 -5 -24 -4 -20 -2 -14 -2 -9 -1 -3 0 6 -70 3 0 10 1 16 2 21 3 25 3 30 5 34 7 38 8 40 9 43 12 46 13 47 16 48 18 49 20 50 23 49 26 50 29 48 32 46 35 45 39 43 42 39 46 37 50 32 55 28 58 23 63 18 67 12 71 6 76 -1 81 -9 85 -15 89 0 1zm0 -1l0 1 0 0 0 -1zm329 723l-8 70 -5 -1 -48 -15 -44 -17 -40 -20 -37 -23 -34 -26 -30 -27 -28 -29 -24 -31 -22 -32 -19 -33 -16 -34 -14 -34 -12 -35 -10 -35 -8 -35 -6 -34 -5 -34 -3 -33 -2 -32 -1 -32 0 -30 0 -28 2 -27 1 -25 3 -22 2 -21 2 -18 3 -15 2 -12 1 -9 1 -6 1 -2 69 15 0 1 -1 5 -2 8 -2 11 -2 14 -2 17 -2 19 -2 21 -2 23 -1 25 -1 27 0 28 1 29 2 30 3 31 5 31 5 31 7 32 9 31 11 31 12 30 15 30 16 29 19 27 20 27 24 24 26 24 29 21 31 20 35 17 39 16 42 13 -5 -1zm-8 70l-3 0 -2 -1 5 1zm465 -497l70 4 0 0 -4 48 -6 45 -9 43 -12 39 -13 37 -15 34 -18 31 -18 28 -21 27 -21 23 -22 22 -24 19 -23 17 -25 14 -24 13 -25 12 -24 9 -24 8 -23 7 -23 5 -22 5 -21 3 -19 2 -19 2 -17 1 -15 0 -13 0 -12 0 -9 0 -7 -1 -5 0 -2 0 8 -70 0 0 3 0 6 0 8 1 10 0 12 0 13 -1 15 -1 16 -1 18 -2 18 -3 19 -4 20 -4 20 -6 21 -7 21 -8 21 -10 20 -11 21 -12 20 -14 19 -16 19 -18 17 -20 17 -21 16 -24 14 -27 14 -29 11 -32 10 -34 8 -38 6 -41 4 -44 0 0zm951 -829l-12 69 0 0 -36 -5 -36 -3 -37 0 -37 1 -36 4 -37 6 -37 8 -37 10 -36 13 -36 14 -36 16 -35 18 -34 20 -34 22 -32 23 -32 26 -31 26 -29 29 -29 30 -27 31 -25 33 -24 34 -22 36 -21 37 -19 38 -17 39 -15 41 -13 41 -11 43 -8 43 -6 45 -4 45 -70 -4 4 -49 6 -48 10 -48 11 -46 14 -45 17 -44 18 -43 20 -41 23 -40 24 -39 26 -37 28 -35 29 -34 31 -33 32 -31 33 -29 34 -27 36 -25 36 -24 37 -22 38 -19 39 -18 40 -16 40 -13 40 -11 40 -9 41 -7 41 -4 41 -2 41 1 41 3 40 6 0 0zm743 1068l-68 -19 0 0 12 -49 9 -47 5 -47 3 -46 -1 -45 -3 -44 -6 -42 -9 -42 -11 -41 -14 -40 -16 -38 -18 -38 -20 -36 -22 -36 -24 -34 -26 -32 -27 -32 -29 -30 -30 -29 -32 -27 -32 -26 -34 -25 -34 -23 -35 -21 -36 -20 -36 -18 -37 -16 -37 -15 -37 -13 -37 -11 -37 -9 -36 -8 12 -69 40 8 40 10 40 12 40 14 40 16 39 18 39 19 38 21 38 23 37 24 36 27 35 28 33 29 33 31 31 33 30 34 27 35 27 37 24 39 22 40 20 41 17 42 15 44 13 45 9 46 7 48 4 48 0 50 -2 50 -7 51 -9 52 -13 53 0 0zm183 549l21 67 0 0 -12 3 -13 2 -14 1 -14 0 -14 -1 -16 -2 -16 -3 -16 -4 -16 -6 -17 -7 -17 -8 -16 -11 -16 -11 -16 -14 -15 -15 -15 -17 -13 -18 -13 -21 -11 -22 -10 -25 -9 -26 -7 -28 -6 -30 -3 -33 -2 -34 0 -36 1 -39 4 -41 7 -44 8 -46 11 -48 14 -51 68 19 -13 49 -11 46 -8 43 -5 40 -4 38 -2 35 0 33 2 30 3 28 5 26 6 23 7 22 8 19 9 18 10 16 10 14 11 12 11 11 11 10 12 9 12 7 12 6 12 5 12 5 11 3 12 2 10 1 10 1 9 0 9 -1 6 -1 6 -1 0 0zm318 -1035l67 -21 0 0 21 70 16 67 13 65 8 63 6 60 2 58 -2 56 -4 53 -6 51 -10 49 -12 46 -13 44 -16 42 -17 40 -19 37 -20 35 -21 33 -21 31 -22 28 -23 27 -23 25 -22 22 -23 20 -21 19 -21 16 -21 15 -19 13 -18 11 -16 9 -15 8 -13 6 -12 4 -21 -67 6 -3 10 -4 12 -6 14 -8 15 -9 17 -12 18 -13 19 -15 20 -16 20 -19 21 -20 20 -23 21 -24 20 -26 20 -28 19 -30 18 -32 17 -34 16 -36 14 -39 13 -40 10 -43 9 -44 6 -47 4 -50 1 -51 -2 -55 -5 -56 -8 -59 -12 -62 -15 -64 -20 -67 0 0zm573 -1667l31 64 -64 33 -61 34 -57 35 -53 36 -49 37 -47 38 -42 39 -40 39 -36 41 -33 42 -30 42 -27 44 -24 45 -21 45 -18 47 -15 48 -13 49 -10 51 -8 51 -5 53 -3 54 0 55 2 57 4 57 7 60 9 60 11 62 13 63 16 64 17 66 19 67 21 68 -67 21 -21 -69 -20 -69 -18 -67 -15 -66 -14 -65 -11 -64 -10 -62 -7 -62 -4 -60 -3 -60 1 -58 2 -57 6 -57 8 -55 11 -54 14 -53 17 -51 19 -51 23 -50 26 -48 29 -47 32 -46 36 -45 39 -44 42 -42 45 -42 49 -40 52 -38 56 -38 60 -37 63 -35 66 -35zm4 38l-181 -29 146 -72 193 23 -99 167 -147 72 88 -161z"/>
  </g>
 </g>
</svg>
